<svg width="23" height="22" viewBox="0 0 23 22" fill="none" xmlns="http://www.w3.org/2000/svg">
<path d="M21.4086 18.8037H1.09607C0.888869 18.8037 0.690155 18.886 0.543642 19.0325C0.397129 19.179 0.314819 19.3778 0.314819 19.585L0.314819 21.1475C0.314819 21.3547 0.397129 21.5534 0.543642 21.6999C0.690155 21.8464 0.888869 21.9287 1.09607 21.9287H21.4086C21.6158 21.9287 21.8145 21.8464 21.961 21.6999C22.1075 21.5534 22.1898 21.3547 22.1898 21.1475V19.585C22.1898 19.3778 22.1075 19.179 21.961 19.0325C21.8145 18.886 21.6158 18.8037 21.4086 18.8037ZM21.4086 12.5537H1.09607C0.888869 12.5537 0.690155 12.636 0.543642 12.7825C0.397129 12.929 0.314819 13.1278 0.314819 13.335L0.314819 14.8975C0.314819 15.1047 0.397129 15.3034 0.543642 15.4499C0.690155 15.5964 0.888869 15.6787 1.09607 15.6787H21.4086C21.6158 15.6787 21.8145 15.5964 21.961 15.4499C22.1075 15.3034 22.1898 15.1047 22.1898 14.8975V13.335C22.1898 13.1278 22.1075 12.929 21.961 12.7825C21.8145 12.636 21.6158 12.5537 21.4086 12.5537ZM21.4086 6.30371H1.09607C0.888869 6.30371 0.690155 6.38602 0.543642 6.53253C0.397129 6.67905 0.314819 6.87776 0.314819 7.08496L0.314819 8.64746C0.314819 8.85466 0.397129 9.05338 0.543642 9.19989C0.690155 9.3464 0.888869 9.42871 1.09607 9.42871H21.4086C21.6158 9.42871 21.8145 9.3464 21.961 9.19989C22.1075 9.05338 22.1898 8.85466 22.1898 8.64746V7.08496C22.1898 6.87776 22.1075 6.67905 21.961 6.53253C21.8145 6.38602 21.6158 6.30371 21.4086 6.30371ZM21.4086 0.0537109H1.09607C0.888869 0.0537109 0.690155 0.136021 0.543642 0.282534C0.397129 0.429047 0.314819 0.627761 0.314819 0.834961L0.314819 2.39746C0.314819 2.60466 0.397129 2.80338 0.543642 2.94989C0.690155 3.0964 0.888869 3.17871 1.09607 3.17871H21.4086C21.6158 3.17871 21.8145 3.0964 21.961 2.94989C22.1075 2.80338 22.1898 2.60466 22.1898 2.39746V0.834961C22.1898 0.627761 22.1075 0.429047 21.961 0.282534C21.8145 0.136021 21.6158 0.0537109 21.4086 0.0537109Z" fill="white"/>
</svg>
