<svg width="32" height="24" viewBox="0 0 32 24" fill="none" xmlns="http://www.w3.org/2000/svg">
<path d="M26.5 18H27.5C27.775 18 28 17.775 28 17.5V2.5C28 2.225 27.775 2 27.5 2H26.5C26.225 2 26 2.225 26 2.5V17.5C26 17.775 26.225 18 26.5 18ZM20.5 18H21.5C21.775 18 22 17.775 22 17.5V8.5C22 8.225 21.775 8 21.5 8H20.5C20.225 8 20 8.225 20 8.5V17.5C20 17.775 20.225 18 20.5 18ZM8.5 18H9.5C9.775 18 10 17.775 10 17.5V12.5C10 12.225 9.775 12 9.5 12H8.5C8.225 12 8 12.225 8 12.5V17.5C8 17.775 8.225 18 8.5 18ZM14.5 18H15.5C15.775 18 16 17.775 16 17.5V4.5C16 4.225 15.775 4 15.5 4H14.5C14.225 4 14 4.225 14 4.5V17.5C14 17.775 14.225 18 14.5 18ZM31.5 22H2V0.5C2 0.22375 1.77625 0 1.5 0H0.5C0.22375 0 0 0.22375 0 0.5V23C0 23.5525 0.4475 24 1 24H31.5C31.7763 24 32 23.7763 32 23.5V22.5C32 22.2237 31.7763 22 31.5 22Z" fill="white"/>
</svg>
