<svg width="24" height="25" viewBox="0 0 24 25" fill="none" xmlns="http://www.w3.org/2000/svg">
<path d="M23.5 11.0469H13.5V1.35938C13.5 1.09176 13.2763 0.875 13 0.875H11C10.7237 0.875 10.5 1.09176 10.5 1.35938V11.0469H0.5C0.22375 11.0469 0 11.2636 0 11.5312V13.4688C0 13.7364 0.22375 13.9531 0.5 13.9531H10.5V23.6406C10.5 23.9082 10.7237 24.125 11 24.125H13C13.2763 24.125 13.5 23.9082 13.5 23.6406V13.9531H23.5C23.7763 13.9531 24 13.7364 24 13.4688V11.5312C24 11.2636 23.7763 11.0469 23.5 11.0469Z" fill="white"/>
</svg>
